<?xml version="1.0" encoding="UTF-8"?>
<svg id="Ebene_1" xmlns="http://www.w3.org/2000/svg" xmlns:xlink="http://www.w3.org/1999/xlink" version="1.1" viewBox="0 0 595.3 841.9">
  <!-- Generator: Adobe Illustrator 29.2.1, SVG Export Plug-In . SVG Version: 2.1.0 Build 116)  -->
  <defs>
    <style>
      .st0 {
        fill-rule: evenodd;
      }

      .st0, .st1, .st2 {
        fill: #fff;
      }

      .st1 {
        font-size: 11.4px;
      }

      .st1, .st2 {
        font-family: Futura-Bold, Futura;
        font-weight: 700;
      }

      .st2 {
        font-size: 45.7px;
      }

      .st3 {
        fill: #9cb748;
        filter: url(#drop-shadow-1);
      }

      .st4 {
        fill: #15355a;
      }
    </style>
    <filter id="drop-shadow-1" x="170.1" y="564.1" width="207.2" height="207.2" filterUnits="userSpaceOnUse">
      <feOffset dx="6.3" dy="-6.3"/>
      <feGaussianBlur result="blur" stdDeviation="6.3"/>
      <feFlood flood-color="#1d1d1b" flood-opacity=".5"/>
      <feComposite in2="blur" operator="in"/>
      <feComposite in="SourceGraphic"/>
    </filter>
  </defs>
  <rect class="st4" x="184.1" y="544.6" width="212.8" height="212.8" rx="17.6" ry="17.6"/>
  <path class="st3" d="M170.1,575.4v180c0,8.8,7.1,15.9,15.9,15.9h180c4.4,0,8.4-1.8,11.2-4.7l-202.5-202.5c-2.9,2.9-4.7,6.9-4.7,11.2Z"/>
  <text class="st2" transform="translate(249.5 635.3)"><tspan x="0" y="0">TISI</tspan><tspan x="-53.8" y="54.8">DIGITAL</tspan></text>
  <text class="st1" transform="translate(214 721.8)"><tspan x="0" y="0">Made in Stuttgart</tspan></text>
  <path class="st0" d="M204.7,714.3l-.6-.6c-.9-.9-2.5-.6-3.1.6-.3.5-.3,1.3.2,2.4.5,1,1.5,2.2,3.4,3.5,1.9-1.3,2.9-2.5,3.4-3.5.5-1,.5-1.8.2-2.4-.6-1.2-2.2-1.4-3.1-.6l-.6.6ZM204.3,720.8c-8.3-5.7-2.3-10.1.3-7.7,0,0,0,0,.1,0,0,0,0,0,.1,0,2.6-2.4,8.6,2,.3,7.7l.2.4c0,0,0,.2,0,.3,0,0-.2,0-.3,0h0c0,0,0,.1,0,.2,0,.2.1.4.3.8.2.4.2.9,0,1.3-.1.4-.3.7-.5.9h0c0,0-.2.1-.3,0,0,0-.1-.2,0-.3h0c.1-.2.3-.5.4-.8.1-.3.1-.6,0-1h0c-.2-.4-.3-.6-.3-.9,0-.1,0-.2,0-.3h0c0,.2-.2.2-.3.1,0,0-.1-.2,0-.3,0,0,0,0,0,0l.2-.4h0ZM203.2,714c-.5-.1-1.1,0-1.4.6-.1.2-.2.5,0,1,0,.2.3.2.4,0,.2-.5.5-1.1,1-1.3.2,0,.2-.3,0-.3"/>
</svg>