<?xml version="1.0" encoding="UTF-8"?>
<svg id="Ebene_1" xmlns="http://www.w3.org/2000/svg" version="1.1" viewBox="0 0 595.3 841.9">
  <!-- Generator: Adobe Illustrator 29.2.1, SVG Export Plug-In . SVG Version: 2.1.0 Build 116)  -->
  <defs>
    <style>
      .st0 {
        fill-rule: evenodd;
      }

      .st0, .st1, .st2 {
        fill: #fff;
      }

      .st3 {
        fill: #9cb749;
      }

      .st4, .st1, .st2 {
        isolation: isolate;
      }

      .st1 {
        font-size: 17.1px;
      }

      .st1, .st2 {
        font-family: Futura-Bold, Futura;
        font-weight: 700;
      }

      .st5 {
        fill: #15365a;
      }

      .st2 {
        font-size: 4.3px;
      }
    </style>
  </defs>
  <rect class="st5" x="257.2" y="378.2" width="79.8" height="79.8" rx="6.6" ry="6.6"/>
  <path class="st3" d="M252,389.7v67.5c0,3.3,2.7,6,6,6h67.5c1.7,0,3.2-.7,4.2-1.8l-76-76c-1.1,1.1-1.8,2.6-1.8,4.2h0Z"/>
  <g class="st4">
    <text class="st1" transform="translate(281.5 412.2)"><tspan x="0" y="0">TISI</tspan></text>
    <text class="st1" transform="translate(261.3 432.8)"><tspan x="0" y="0">DIGITAL</tspan></text>
  </g>
  <g class="st4">
    <text class="st2" transform="translate(268.1 444.7)"><tspan x="0" y="0">Made in Stuttgart</tspan></text>
  </g>
  <path class="st0" d="M264.6,441.8l-.2-.2c-.3-.3-.9-.2-1.2.2-.1.2-.1.5,0,.9.2.4.6.8,1.3,1.3.7-.5,1.1-.9,1.3-1.3s.2-.7,0-.9c-.2-.5-.8-.5-1.2-.2l-.2.2h0ZM264.5,444.3c-3.1-2.1-.9-3.8.1-2.9h0c1-.9,3.2.8.1,2.9v.2c0,0,0,0,0,.1h-.1c0,.2,0,.2.1.4,0,.2,0,.3,0,.5,0,.2-.1.3-.2.3h0s0,0-.1,0c0,0,0,0,0-.1h0c0,0,.1-.2.2-.3,0-.1,0-.2,0-.4h0c0-.2-.1-.2-.1-.3h0s0,0-.1,0c0,0,0,0,0-.1h0v-.2h0,0ZM264.1,441.7c-.2,0-.4,0-.5.2s0,.2,0,.4c0,0,.1,0,.2,0,0-.2.2-.4.4-.5,0,0,0-.1,0-.1"/>
</svg>