<?xml version="1.0" encoding="UTF-8"?>
<svg id="Ebene_1" data-name="Ebene 1" xmlns="http://www.w3.org/2000/svg" viewBox="0 0 226.77 226.77">
  <defs>
    <style>
      .cls-1 {
        fill-rule: evenodd;
      }

      .cls-1, .cls-2, .cls-3 {
        fill: #fff;
      }

      .cls-2 {
        font-size: 11.4px;
      }

      .cls-2, .cls-4, .cls-3 {
        isolation: isolate;
      }

      .cls-2, .cls-3 {
        font-family: Futura-Bold, Futura;
        font-weight: 700;
      }

      .cls-5 {
        fill: #9cb748;
      }

      .cls-6 {
        letter-spacing: 0em;
      }

      .cls-7 {
        letter-spacing: 0em;
      }

      .cls-3 {
        font-size: 45.71px;
      }

      .cls-8 {
        fill: #15355a;
      }

      .cls-9 {
        letter-spacing: -.03em;
      }

      .cls-10 {
        letter-spacing: -.03em;
      }

      .cls-11 {
        letter-spacing: .03em;
      }

      .cls-12 {
        letter-spacing: .02em;
      }

      .cls-13 {
        letter-spacing: .01em;
      }

      .cls-14 {
        letter-spacing: 0em;
      }
    </style>
  </defs>
  <rect class="cls-8" x="13.9" width="212.87" height="212.87" rx="17.61" ry="17.61"/>
  <path class="cls-5" d="M.1,30.81v180.06c0,8.8,7.1,15.91,15.91,15.91h180.06c4.4,0,8.4-1.8,11.2-4.7L4.7,19.51C1.8,22.41,0,26.41,0,30.71l.1.1Z"/>
  <g class="cls-4">
    <text class="cls-3" transform="translate(78.52 90.73)"><tspan x="0" y="0">TISI</tspan></text>
    <text class="cls-3" transform="translate(24.71 145.55)"><tspan x="0" y="0">DIGI</tspan><tspan class="cls-10" x="108.52" y="0">T</tspan><tspan x="131.34" y="0">AL</tspan></text>
  </g>
  <g class="cls-4">
    <text class="cls-2" transform="translate(43.01 177.26)"><tspan class="cls-9" x="0" y="0">M</tspan><tspan class="cls-7" x="11.49" y="0">ade in </tspan><tspan class="cls-14" x="53.66" y="0">S</tspan><tspan x="61.15" y="0">tu</tspan><tspan class="cls-11" x="73.03" y="0">t</tspan><tspan x="77.59" y="0">t</tspan><tspan class="cls-13" x="81.84" y="0">g</tspan><tspan x="89.92" y="0">a</tspan><tspan class="cls-12" x="97.91" y="0">r</tspan><tspan class="cls-6" x="103.44" y="0">t</tspan></text>
  </g>
  <path class="cls-1" d="M33.71,169.75l-.6-.6c-.9-.9-2.5-.6-3.1.6-.3.5-.3,1.3.2,2.4.5,1,1.5,2.2,3.4,3.5,1.9-1.3,2.9-2.5,3.4-3.5s.5-1.8.2-2.4c-.6-1.2-2.2-1.4-3.1-.6l-.6.6h.2ZM33.31,176.26c-8.3-5.7-2.3-10.1.3-7.7h.2c2.6-2.4,8.6,2,.3,7.7l.2.4v.3h-.3v.2c0,.2.1.4.3.8.2.4.2.9,0,1.3-.1.4-.3.7-.5.9h0s-.2.1-.3,0c0,0-.1-.2,0-.3h0c.1-.2.3-.5.4-.8.1-.3.1-.6,0-1h0c-.2-.4-.3-.6-.3-.9v-.3h0c0,.2-.2.2-.3.1,0,0-.1-.2,0-.3h0l.2-.4h-.2ZM32.21,169.45c-.5-.1-1.1,0-1.4.6-.1.2-.2.5,0,1,0,.2.3.2.4,0,.2-.5.5-1.1,1-1.3.2,0,.2-.3,0-.3"/>
</svg>